<?xml version="1.0" standalone="no"?>
<!DOCTYPE svg PUBLIC "-//W3C//DTD SVG 20010904//EN"
 "http://www.w3.org/TR/2001/REC-SVG-20010904/DTD/svg10.dtd">
<svg version="1.0" xmlns="http://www.w3.org/2000/svg"
 width="1063.000000pt" height="1063.000000pt" viewBox="0 0 1063.000000 1063.000000"
 preserveAspectRatio="xMidYMid meet">
<metadata>
Created by potrace 1.11, written by Peter Selinger 2001-2013
</metadata>
<g transform="translate(0.000000,1063.000000) scale(0.100000,-0.100000)"
fill="#000000" stroke="none">
<path d="M2719 8925 c-2 -1 -38 -5 -79 -9 -67 -5 -117 -13 -215 -31 -139 -26
-337 -81 -413 -116 -24 -11 -61 -27 -82 -35 -73 -29 -44 -51 46 -35 33 6 84
13 114 17 30 3 66 7 80 10 155 25 807 25 882 -1 7 -2 36 -6 63 -9 43 -5 136
-20 250 -41 161 -31 408 -107 580 -181 372 -158 686 -392 905 -675 217 -281
376 -649 414 -959 25 -211 26 -484 2 -615 -2 -11 -7 -40 -11 -65 -107 -652
-516 -1338 -1100 -1840 -302 -260 -715 -528 -1130 -732 -272 -134 -270 -133
-270 -154 0 -21 5 -22 85 -10 69 10 60 8 220 49 183 47 381 122 585 222 224
110 271 137 455 259 338 225 639 503 881 816 188 242 335 502 432 760 62 167
157 545 182 723 14 101 14 474 0 577 -31 230 -103 465 -207 675 -49 97 -136
255 -147 265 -4 3 -24 32 -46 65 -105 156 -276 337 -435 461 -304 236 -742
444 -1095 520 -11 2 -29 6 -40 8 -11 3 -66 14 -122 25 -101 20 -115 23 -223
36 -30 4 -66 9 -80 12 -28 5 -476 13 -481 8z"/>
<path d="M7202 8828 c-17 -21 -20 -52 -27 -263 -3 -104 -8 -203 -10 -220 -2
-16 -7 -55 -10 -85 -14 -127 -49 -328 -90 -525 -41 -195 -143 -621 -165 -690
-6 -16 -37 -124 -69 -240 -74 -263 -84 -296 -241 -815 -70 -234 -144 -481
-164 -550 -39 -137 -156 -590 -162 -630 -3 -14 -9 -38 -14 -55 -5 -16 -12 -43
-14 -60 -3 -16 -10 -52 -16 -80 -6 -27 -13 -63 -16 -80 -22 -117 -34 -186 -39
-220 -3 -23 -7 -50 -9 -60 -2 -11 -7 -47 -11 -80 -4 -32 -9 -68 -11 -79 -2
-11 -6 -50 -9 -86 -3 -36 -8 -72 -10 -80 -2 -8 -7 -59 -11 -114 -3 -54 -8
-115 -10 -135 -5 -56 -4 -421 1 -471 3 -25 7 -67 10 -95 10 -94 37 -240 67
-360 29 -120 82 -289 97 -313 6 -10 28 0 88 41 134 91 316 149 548 174 131 15
528 8 695 -12 46 -5 128 -13 300 -30 83 -8 164 -15 236 -20 40 -3 91 -8 115
-10 205 -19 584 -26 696 -12 130 16 150 19 238 38 176 39 214 49 273 75 82 36
65 62 -55 83 -32 6 -69 13 -83 16 -14 3 -65 12 -115 20 -49 8 -108 19 -130 25
-53 12 -249 48 -305 55 -25 3 -72 10 -105 15 -283 42 -1121 57 -1385 25 -19
-2 -57 -6 -85 -9 -27 -3 -66 -8 -86 -11 l-36 -6 104 313 c227 682 360 1129
458 1543 8 37 24 95 77 290 90 332 186 724 222 915 3 14 7 36 10 50 12 55 16
77 22 115 3 22 7 42 9 45 2 3 6 26 10 50 3 25 10 68 15 95 5 28 14 86 20 131
6 44 12 89 14 100 2 10 7 53 11 94 4 41 9 84 11 95 18 96 26 520 11 625 -12
84 -46 220 -66 265 -10 22 -21 48 -24 57 -11 31 -37 9 -38 -31 0 -20 -2 -54
-4 -76 -2 -22 -6 -80 -9 -130 -3 -49 -8 -110 -11 -135 -3 -25 -7 -65 -9 -90
-27 -269 -81 -518 -243 -1110 -8 -30 -16 -62 -18 -70 -2 -8 -29 -103 -60 -210
-126 -429 -168 -574 -225 -775 -32 -115 -68 -246 -80 -290 -12 -44 -32 -123
-46 -175 -37 -139 -132 -521 -138 -550 -2 -14 -11 -56 -20 -95 -16 -76 -39
-195 -55 -290 -6 -33 -13 -73 -15 -90 -3 -16 -10 -64 -16 -106 -6 -41 -12 -85
-15 -97 -2 -11 -7 -52 -10 -89 -4 -37 -8 -79 -10 -93 -11 -75 -21 -193 -24
-265 l-1 -40 -80 -25 -80 -26 -9 36 c-5 19 -12 71 -16 115 -15 206 -59 425
-84 425 -4 0 -17 -9 -29 -20 -45 -42 -65 -189 -65 -479 l-1 -173 -52 -39 c-29
-21 -60 -49 -68 -61 -9 -12 -16 -20 -16 -16 0 3 -7 41 -15 84 -42 227 -59 404
-59 629 0 114 13 364 19 375 1 3 6 39 9 80 4 41 9 82 11 90 2 8 6 39 10 69 6
61 18 142 40 276 4 20 42 221 49 260 5 23 44 191 52 220 3 11 7 30 10 41 28
138 150 569 261 924 135 433 291 957 308 1035 2 11 18 71 34 133 30 111 94
399 107 476 3 21 8 48 10 60 2 11 9 53 15 91 6 39 12 81 15 95 2 14 6 50 10
80 3 30 7 66 10 80 19 118 25 428 11 588 -8 89 -10 106 -22 162 -3 14 -7 43
-10 64 -7 56 -51 226 -73 276 -15 35 -20 40 -30 28z"/>
<path d="M2708 8605 c-2 -1 -50 -5 -108 -9 -182 -11 -330 -31 -575 -80 -67
-13 -247 -61 -345 -92 -358 -112 -646 -262 -809 -420 -111 -109 -79 -124 90
-45 215 100 550 196 827 237 20 3 62 9 92 14 30 5 80 12 110 15 30 4 69 8 85
10 179 21 725 28 915 12 307 -26 515 -85 793 -226 404 -205 733 -501 863 -776
55 -118 86 -221 129 -425 1 -8 6 -40 10 -70 3 -30 9 -67 11 -82 14 -90 21
-456 10 -533 -2 -16 -7 -59 -11 -95 -7 -64 -9 -74 -21 -135 -15 -78 -60 -207
-99 -285 -45 -91 -103 -255 -93 -266 11 -11 44 14 77 58 146 197 207 303 276
477 41 107 100 305 110 372 4 24 11 66 16 92 22 117 30 396 15 522 -32 274
-124 524 -275 744 -92 134 -251 308 -376 409 -38 31 -72 59 -75 62 -13 14
-152 111 -220 152 -79 49 -400 208 -419 208 -7 0 -25 7 -40 15 -44 22 -258 85
-343 100 -176 31 -234 37 -435 40 -100 1 -184 1 -185 0z"/>
<path d="M7456 8543 c3 -27 9 -68 14 -93 9 -44 6 -436 -3 -475 -3 -11 -8 -56
-12 -100 -3 -44 -8 -91 -10 -105 -2 -14 -6 -52 -10 -85 -3 -33 -10 -87 -15
-120 -5 -33 -12 -85 -15 -115 -3 -30 -8 -62 -10 -70 -2 -8 -7 -35 -10 -60 -8
-57 -14 -98 -20 -130 -7 -37 -16 -91 -20 -120 -15 -112 -122 -649 -170 -860
-15 -63 -29 -124 -31 -135 -2 -11 -19 -76 -39 -145 -67 -239 -134 -506 -160
-640 -25 -130 -67 -357 -80 -430 -3 -19 -10 -53 -15 -75 -9 -41 -14 -77 -26
-175 -3 -30 -9 -75 -13 -100 -14 -93 -1 -150 32 -137 21 8 78 114 132 247 26
63 53 129 60 145 82 187 324 845 422 1145 73 223 201 657 218 739 2 9 10 43
19 76 8 33 18 74 21 90 2 17 7 39 9 50 2 11 7 45 11 75 4 30 9 63 10 72 4 17
15 119 21 192 5 59 5 434 -1 481 -2 22 -7 65 -10 95 -26 247 -80 457 -160 625
-47 99 -108 185 -130 185 -11 0 -13 -10 -9 -47z"/>
<path d="M2209 8105 c-2 -1 -48 -6 -101 -9 -54 -4 -103 -8 -110 -11 -7 -2 -41
-6 -74 -9 -79 -7 -245 -39 -401 -77 -304 -74 -651 -216 -865 -355 -124 -80
-61 -91 149 -25 238 74 514 151 593 165 14 2 36 7 50 10 14 3 36 8 50 10 14 2
36 7 50 10 14 3 41 8 60 11 93 14 120 16 120 9 0 -5 -5 -36 -10 -69 -6 -33
-13 -75 -16 -94 -3 -18 -7 -41 -9 -50 -1 -9 -10 -56 -20 -106 -44 -240 -233
-921 -447 -1615 -11 -36 -23 -78 -28 -95 -4 -16 -21 -73 -38 -125 -176 -550
-341 -1226 -386 -1580 -2 -20 -11 -83 -20 -140 -14 -96 -19 -151 -31 -310 -6
-69 -6 -371 -1 -425 3 -22 7 -76 10 -120 4 -44 8 -93 11 -110 3 -16 7 -43 10
-60 3 -16 9 -57 15 -90 49 -298 181 -640 338 -875 107 -160 184 -245 217 -238
12 2 8 15 -16 63 -99 194 -192 465 -233 675 -27 142 -34 183 -42 250 -3 30 -8
63 -9 72 -13 68 -20 233 -20 473 0 244 9 487 19 504 2 3 7 40 10 81 10 103 14
138 36 275 13 76 19 113 25 145 3 14 8 39 11 55 44 248 155 645 307 1105 179
536 279 867 353 1165 54 215 73 293 78 321 2 11 16 79 29 150 47 241 67 418
72 659 2 72 4 133 4 138 1 4 26 7 57 7 l56 0 -7 -82 c-4 -46 -8 -90 -10 -98
-1 -8 -6 -55 -11 -105 -10 -110 -16 -158 -30 -246 -2 -15 -6 -47 -9 -70 -3
-24 -12 -84 -20 -134 -8 -49 -17 -112 -20 -140 -4 -27 -8 -57 -10 -65 -3 -8
-7 -33 -10 -55 -8 -50 -13 -83 -19 -115 -3 -14 -8 -43 -11 -65 -3 -22 -7 -47
-10 -55 -2 -8 -6 -31 -9 -50 -20 -124 -86 -443 -132 -630 -25 -102 -65 -246
-89 -321 -49 -153 -96 -364 -140 -624 -3 -16 -7 -41 -9 -55 -18 -100 -28 -155
-31 -178 -2 -15 -10 -67 -19 -117 -9 -49 -18 -121 -22 -160 -3 -38 -9 -95 -12
-125 -13 -106 6 -140 46 -82 103 144 512 1223 687 1812 46 155 123 432 129
465 3 14 7 33 10 43 40 131 64 597 44 828 -8 87 -26 220 -33 244 -2 8 -7 31
-10 50 -3 19 -10 54 -16 78 -12 54 -8 60 33 56 18 -1 85 -5 148 -9 63 -3 129
-7 145 -9 17 -2 62 -8 100 -12 39 -4 72 -8 75 -9 3 -1 25 -5 50 -9 545 -92
919 -260 1157 -520 156 -171 263 -392 291 -606 14 -110 6 -329 -16 -433 -67
-307 -239 -657 -469 -954 -272 -351 -618 -676 -1068 -1005 -281 -204 -722
-504 -730 -496 -3 3 10 61 30 129 19 68 37 133 39 144 2 12 13 52 24 90 11 39
44 160 72 270 29 110 85 322 125 470 138 504 261 1038 291 1260 4 28 8 59 10
70 9 49 32 233 39 315 3 36 8 88 11 115 12 109 6 371 -10 469 -24 147 -91 334
-112 314 -1 -2 -6 -53 -9 -113 -7 -144 -13 -206 -31 -375 -3 -25 -9 -70 -14
-100 -5 -30 -12 -75 -15 -100 -4 -25 -13 -75 -21 -112 -7 -37 -16 -81 -19 -98
-17 -98 -160 -615 -286 -1035 -39 -131 -91 -311 -93 -320 -1 -5 -10 -35 -19
-65 -9 -30 -28 -93 -41 -140 -13 -47 -54 -186 -89 -310 -62 -212 -130 -464
-141 -520 -2 -14 -16 -74 -29 -135 -14 -60 -30 -137 -36 -170 -6 -33 -13 -71
-16 -85 -3 -14 -8 -38 -10 -55 -8 -45 -51 -126 -85 -163 -17 -18 -64 -54 -104
-82 -41 -27 -95 -67 -121 -90 -37 -32 -43 -41 -30 -46 34 -13 233 76 580 261
44 23 125 66 180 95 846 446 1380 833 1835 1330 125 137 306 386 400 550 140
246 228 501 256 745 6 60 6 320 -1 355 -2 13 -7 42 -11 65 -5 34 -11 65 -29
145 -12 50 -62 187 -95 257 -92 197 -259 408 -430 544 -192 153 -479 279 -765
335 -11 2 -31 6 -45 9 -96 20 -242 44 -320 51 -41 3 -79 9 -84 12 -10 6 -571
13 -577 7z"/>
<path d="M3538 4286 c-49 -20 -310 -159 -444 -237 -22 -13 -110 -64 -195 -112
-85 -49 -161 -92 -169 -98 -19 -11 -173 -99 -265 -151 -107 -60 -219 -112
-595 -278 -431 -191 -578 -261 -611 -291 -68 -64 -78 -116 -74 -398 2 -210 8
-260 50 -441 32 -134 75 -232 153 -349 96 -143 125 -178 165 -201 54 -31 65
-16 34 46 -13 27 -43 102 -66 167 -60 173 -84 271 -126 526 -9 52 -19 273 -20
412 0 131 2 149 19 168 19 21 130 81 150 81 8 0 10 -18 6 -58 -10 -102 -3
-475 9 -506 7 -17 15 -25 20 -20 9 9 28 65 35 100 13 62 100 393 124 469 23
74 33 92 55 103 14 7 131 51 259 98 128 46 252 93 275 104 24 11 45 20 49 20
22 0 369 176 509 258 306 180 577 395 699 555 39 51 25 62 -46 33z"/>
<path d="M9934 2923 c-60 -75 -273 -276 -353 -333 -53 -39 -253 -157 -351
-208 -101 -52 -140 -85 -133 -113 22 -81 404 14 588 145 107 77 162 143 220
262 71 148 100 232 91 267 -3 15 -10 27 -15 27 -5 0 -26 -21 -47 -47z"/>
<path d="M9994 2643 c-21 -27 -54 -68 -73 -92 -75 -94 -223 -240 -316 -309
-225 -170 -560 -300 -890 -346 -107 -15 -384 -18 -500 -6 -38 5 -98 11 -132
15 -34 3 -72 8 -84 10 -13 3 -41 7 -64 10 -22 3 -96 17 -165 30 -139 27 -359
65 -405 70 -51 5 -129 16 -155 20 -14 3 -56 7 -95 10 -38 4 -88 8 -110 11 -61
7 -282 7 -360 -1 -242 -23 -385 -71 -550 -184 -27 -19 -52 -37 -55 -40 -3 -3
-29 -28 -59 -55 l-53 -49 48 7 c27 3 60 8 74 11 14 2 39 6 55 9 17 3 55 8 85
12 30 3 66 7 80 10 140 25 725 24 975 -1 36 -4 95 -7 360 -20 508 -26 1082
-25 1319 0 137 15 350 77 465 135 269 135 458 337 607 646 33 68 54 144 40
144 -2 0 -22 -21 -42 -47z"/>
<path d="M7109 2506 c-2 -2 -33 -6 -69 -10 -67 -6 -106 -12 -150 -22 -14 -3
-36 -8 -50 -10 -102 -19 -310 -86 -410 -132 -149 -69 -276 -174 -350 -287 -67
-103 -58 -140 20 -84 81 59 266 138 364 155 17 3 49 9 71 14 110 24 306 42
480 43 177 1 273 -3 515 -21 204 -15 716 -6 814 14 12 3 39 7 61 10 102 14
117 20 113 47 -5 33 -79 82 -149 100 -35 9 -107 28 -159 42 -81 22 -327 77
-410 91 -14 2 -47 9 -75 14 -27 5 -72 12 -100 15 -27 3 -66 8 -85 11 -43 6
-425 15 -431 10z"/>
</g>
</svg>
